<svg id="visual" viewBox="0 0 900 600" width="900" height="600" xmlns="http://www.w3.org/2000/svg" xmlns:xlink="http://www.w3.org/1999/xlink" version="1.1"><rect x="0" y="0" width="900" height="600" fill="#de7571"></rect><path d="M0 377L129 348L257 300L386 355L514 333L643 322L771 411L900 399L900 601L771 601L643 601L514 601L386 601L257 601L129 601L0 601Z" fill="#bf0a0d"></path><path d="M0 361L129 381L257 398L386 422L514 431L643 389L771 359L900 397L900 601L771 601L643 601L514 601L386 601L257 601L129 601L0 601Z" fill="#a5003d"></path><path d="M0 418L129 422L257 432L386 431L514 416L643 459L771 479L900 479L900 601L771 601L643 601L514 601L386 601L257 601L129 601L0 601Z" fill="#781c52"></path><path d="M0 474L129 488L257 490L386 522L514 522L643 460L771 498L900 485L900 601L771 601L643 601L514 601L386 601L257 601L129 601L0 601Z" fill="#48294e"></path><path d="M0 529L129 563L257 512L386 538L514 543L643 523L771 517L900 525L900 601L771 601L643 601L514 601L386 601L257 601L129 601L0 601Z" fill="#282634"></path></svg>