<svg id="visual" viewBox="0 0 900 600" width="900" height="600" xmlns="http://www.w3.org/2000/svg" xmlns:xlink="http://www.w3.org/1999/xlink" version="1.1"><rect x="0" y="0" width="900" height="600" fill="#000000"></rect><path d="M0 437L21.5 431.7C43 426.3 86 415.7 128.8 402.3C171.7 389 214.3 373 257.2 379.3C300 385.7 343 414.3 385.8 420.2C428.7 426 471.3 409 514.2 400C557 391 600 390 642.8 396.2C685.7 402.3 728.3 415.7 771.2 421.5C814 427.3 857 425.7 878.5 424.8L900 424L900 601L878.5 601C857 601 814 601 771.2 601C728.3 601 685.7 601 642.8 601C600 601 557 601 514.2 601C471.3 601 428.7 601 385.8 601C343 601 300 601 257.2 601C214.3 601 171.7 601 128.8 601C86 601 43 601 21.5 601L0 601Z" fill="#201f21"></path><path d="M0 473L21.5 465.3C43 457.7 86 442.3 128.8 431C171.7 419.7 214.3 412.3 257.2 413.3C300 414.3 343 423.7 385.8 432.2C428.7 440.7 471.3 448.3 514.2 446.7C557 445 600 434 642.8 433C685.7 432 728.3 441 771.2 449C814 457 857 464 878.5 467.5L900 471L900 601L878.5 601C857 601 814 601 771.2 601C728.3 601 685.7 601 642.8 601C600 601 557 601 514.2 601C471.3 601 428.7 601 385.8 601C343 601 300 601 257.2 601C214.3 601 171.7 601 128.8 601C86 601 43 601 21.5 601L0 601Z" fill="#313033"></path><path d="M0 498L21.5 499.7C43 501.3 86 504.7 128.8 500.3C171.7 496 214.3 484 257.2 484.2C300 484.3 343 496.7 385.8 501.7C428.7 506.7 471.3 504.3 514.2 503.5C557 502.7 600 503.3 642.8 496.5C685.7 489.7 728.3 475.3 771.2 470C814 464.7 857 468.3 878.5 470.2L900 472L900 601L878.5 601C857 601 814 601 771.2 601C728.3 601 685.7 601 642.8 601C600 601 557 601 514.2 601C471.3 601 428.7 601 385.8 601C343 601 300 601 257.2 601C214.3 601 171.7 601 128.8 601C86 601 43 601 21.5 601L0 601Z" fill="#434246"></path><path d="M0 524L21.5 519.3C43 514.7 86 505.3 128.8 502.8C171.7 500.3 214.3 504.7 257.2 503.2C300 501.7 343 494.3 385.8 493.5C428.7 492.7 471.3 498.3 514.2 500.2C557 502 600 500 642.8 497.8C685.7 495.7 728.3 493.3 771.2 493.3C814 493.3 857 495.7 878.5 496.8L900 498L900 601L878.5 601C857 601 814 601 771.2 601C728.3 601 685.7 601 642.8 601C600 601 557 601 514.2 601C471.3 601 428.7 601 385.8 601C343 601 300 601 257.2 601C214.3 601 171.7 601 128.8 601C86 601 43 601 21.5 601L0 601Z" fill="#56555a"></path><path d="M0 525L21.5 525.2C43 525.3 86 525.7 128.8 530.5C171.7 535.3 214.3 544.7 257.2 546.8C300 549 343 544 385.8 546.7C428.7 549.3 471.3 559.7 514.2 563.8C557 568 600 566 642.8 566.2C685.7 566.3 728.3 568.7 771.2 566.5C814 564.3 857 557.7 878.5 554.3L900 551L900 601L878.5 601C857 601 814 601 771.2 601C728.3 601 685.7 601 642.8 601C600 601 557 601 514.2 601C471.3 601 428.7 601 385.8 601C343 601 300 601 257.2 601C214.3 601 171.7 601 128.8 601C86 601 43 601 21.5 601L0 601Z" fill="#69686e"></path></svg>